<?xml version="1.0" encoding="UTF-8"?>
<svg version="1.1" xmlns="http://www.w3.org/2000/svg" width="453" height="94">
<path d="M0 0 C0.73809448 -0.00235223 1.47618895 -0.00470446 2.23664993 -0.00712797 C4.72945238 -0.01382677 7.2222028 -0.01335948 9.7150135 -0.01294994 C11.51245298 -0.016248 13.30989171 -0.01997345 15.10732949 -0.02409142 C20.06198567 -0.03412581 25.01662974 -0.03783051 29.97129464 -0.04048073 C35.30881597 -0.04437942 40.64632766 -0.05395793 45.98384285 -0.0626936 C58.88001853 -0.08246841 71.776195 -0.09252466 84.67238206 -0.10142139 C90.74056976 -0.10580187 96.80875658 -0.11116923 102.87694359 -0.11641026 C123.03962905 -0.13342213 143.20231396 -0.14791797 163.36500549 -0.155159 C168.59887251 -0.15706898 173.83273952 -0.15898931 179.06660652 -0.16094494 C181.0179565 -0.16167055 181.0179565 -0.16167055 183.00872768 -0.16241082 C204.09899555 -0.17071737 225.1892068 -0.19606502 246.27944992 -0.22852562 C267.91591762 -0.26155643 289.55235651 -0.27960408 311.18884957 -0.28280324 C323.34369296 -0.28497183 335.49845376 -0.29377155 347.65327263 -0.31926441 C358.001113 -0.34091696 368.34885072 -0.34904868 378.69671117 -0.33929763 C383.97932679 -0.33473734 389.26173038 -0.33673921 394.54431725 -0.35605907 C399.37665188 -0.37358021 404.20861808 -0.37278356 409.04095604 -0.35716178 C410.79263054 -0.35476883 412.54432982 -0.3591958 414.29596625 -0.37099043 C416.67096931 -0.38599678 419.04464774 -0.37651644 421.4196167 -0.36076355 C422.1051187 -0.37098576 422.7906207 -0.38120796 423.49689549 -0.39173993 C428.20028603 -0.32330723 430.52776313 0.8338863 433.83564949 4.13422108 C437.35562547 9.41418505 436.59896376 16.01476936 435.83564949 22.13422108 C433.94175719 25.86391081 431.56637555 28.26885805 427.83564949 30.13422108 C414.88332607 31.21874577 414.88332607 31.21874577 410.79268074 29.05218983 C409.46165517 27.75844789 408.14816564 26.44673722 406.83564949 25.13422108 C404.01859522 24.26071588 401.84178399 24.18350197 398.83564949 24.13422108 C397.35064949 25.12422108 397.35064949 25.12422108 395.83564949 26.13422108 C395.58543379 29.21787978 395.58543379 29.21787978 395.83564949 32.13422108 C396.62068855 32.31597889 397.40572762 32.4977367 398.21455574 32.68500233 C413.04999174 36.23458517 413.04999174 36.23458517 416.48799324 39.89203358 C418.96035786 44.005475 418.57050458 48.50532077 417.83564949 53.13422108 C415.03922268 57.04921861 412.33626518 58.66801483 407.83564949 60.13422108 C404.49580574 60.43500233 404.49580574 60.43500233 400.89814949 60.44672108 C399.12117683 60.4718578 399.12117683 60.4718578 397.30830574 60.49750233 C391.46826322 59.88656425 387.70273753 57.44751158 383.83564949 53.13422108 C384.98738304 50.66622061 385.88348515 49.08638542 387.83564949 47.13422108 C390.33223208 47.37582584 391.49413924 47.75520392 393.18721199 49.63422108 C395.244932 51.50664876 396.53045323 51.67383899 399.27314949 51.94672108 C400.4159034 52.08013905 400.4159034 52.08013905 401.58174324 52.21625233 C404.27754445 52.11813824 405.66595656 51.75076153 407.83564949 50.13422108 C408.64736177 47.57902186 408.64736177 47.57902186 408.83564949 45.13422108 C408.06221199 44.96406483 407.28877449 44.79390858 406.49189949 44.61859608 C391.62841918 41.16026155 391.62841918 41.16026155 387.15205574 36.31000233 C384.81764848 32.45164968 385.10112771 28.48643423 385.83564949 24.13422108 C387.49015844 20.79796846 389.72457253 18.69556658 393.07783699 17.00140858 C398.83163835 15.19213959 406.34384549 14.82633689 412.04658699 16.96234608 C414.25379771 18.40510821 415.65335043 19.76962296 416.83564949 22.13422108 C418.09377449 22.17547108 419.35189949 22.21672108 420.64814949 22.25922108 C421.3558448 22.2824242 422.06354012 22.30562733 422.79268074 22.32953358 C425.14924668 22.26676569 425.14924668 22.26676569 427.83564949 20.13422108 C428.67467175 16.28870239 429.08925474 13.89503682 427.83564949 10.13422108 C424.34549563 7.59495282 420.80576403 7.88569023 416.61237144 7.88812542 C415.88006701 7.88581773 415.14776257 7.88351004 414.3932671 7.88113242 C411.92615582 7.87581591 409.45930276 7.88483015 406.99220467 7.89371204 C405.21096286 7.89284031 403.42972131 7.89108994 401.64848113 7.88853371 C396.74340757 7.88404976 391.83842091 7.89207823 386.93335843 7.90208983 C381.64776244 7.91070697 376.36217155 7.90780541 371.07657051 7.90628529 C361.91546398 7.90523533 352.75438589 7.91152345 343.59328651 7.92276096 C330.34779114 7.93899807 317.10230955 7.94422213 303.85680529 7.94673695 C282.36813749 7.95111686 260.87948484 7.96443401 239.39082527 7.98334217 C218.5135474 8.0016933 197.63627364 8.01585356 176.75898933 8.0243578 C175.47264513 8.02488324 174.18630093 8.02540869 172.86097661 8.02595006 C166.40792446 8.02856009 159.95487228 8.03108751 153.50182009 8.03357387 C99.94641941 8.0543156 46.39103519 8.0895492 -7.16435051 8.13422108 C-8.1592826 11.11901733 -8.29101522 13.08490226 -8.29374504 16.20062733 C-8.2968972 17.23179676 -8.30004936 18.26296619 -8.30329704 19.32538319 C-8.30127281 20.43792469 -8.29924858 21.55046619 -8.29716301 22.69672108 C-8.29811974 23.83955555 -8.29907646 24.98239002 -8.30006218 26.15985584 C-8.30074303 28.57741825 -8.29889534 30.99498249 -8.2947216 33.41254139 C-8.28937206 37.11928877 -8.29466984 40.82591498 -8.30106926 44.53265858 C-8.30040846 46.87901301 -8.29912726 49.22536737 -8.29716301 51.57172108 C-8.29918724 52.68426258 -8.30121147 53.79680408 -8.30329704 54.94305897 C-8.30014488 55.9742284 -8.29699272 57.00539783 -8.29374504 58.06781483 C-8.29294945 58.97587879 -8.29215385 59.88394276 -8.29133415 60.81952381 C-8.25765901 63.29393995 -8.25765901 63.29393995 -7.16435051 66.13422108 C-3.1876916 67.61117879 1.06323822 67.28732917 5.2511158 67.29243946 C6.10799594 67.29737744 6.96487608 67.30231542 7.84772229 67.30740303 C10.72357888 67.32278076 13.59941313 67.33113942 16.47529793 67.33954334 C18.53497705 67.34912165 20.59465421 67.3591317 22.6543293 67.36954212 C28.25100881 67.3966024 33.84769675 67.41760591 39.44440556 67.43754411 C45.29140897 67.45939671 51.13838633 67.48678895 56.98536873 67.51360035 C68.05979424 67.56353704 79.13423421 67.60847226 90.20868802 67.65162271 C102.81557144 67.70098673 115.42242872 67.75590796 128.02928686 67.8113023 C153.96471668 67.92513735 179.90017158 68.03197309 205.83564949 68.13422108 C206.32300705 69.4001596 206.80716787 70.66732906 207.28999519 71.93500233 C207.55995811 72.64052235 207.82992104 73.34604237 208.10806465 74.07294178 C209.04469332 76.72645128 209.57228503 79.35967056 210.02314949 82.13422108 C210.18170418 83.08297108 210.34025887 84.03172108 210.50361824 85.00922108 C210.61318855 85.71047108 210.72275887 86.41172108 210.83564949 87.13422108 C211.49564949 87.13422108 212.15564949 87.13422108 212.83564949 87.13422108 C212.9452198 86.43297108 213.05479012 85.73172108 213.16768074 85.00922108 C214.16470954 79.04326014 215.51669328 73.72079739 217.83564949 68.13422108 C219.81564949 68.13422108 221.79564949 68.13422108 223.83564949 68.13422108 C222.94145395 71.72354707 222.01644765 75.30422814 221.08564949 78.88422108 C220.70666512 80.40789295 220.70666512 80.40789295 220.32002449 81.96234608 C219.93330574 83.43187733 219.93330574 83.43187733 219.53877449 84.93109608 C219.30835457 85.8318285 219.07793465 86.73256092 218.8405323 87.66058826 C217.64663537 90.59950074 216.29322665 92.14628864 213.83564949 94.13422108 C210.77314949 94.32172108 210.77314949 94.32172108 207.83564949 93.13422108 C206.41944909 90.66898334 205.63449801 88.80995834 204.83564949 86.13422108 C204.57678963 85.28142567 204.31792976 84.42863026 204.05122566 83.54999256 C203.65640999 82.22850208 203.65640999 82.22850208 203.25361824 80.88031483 C202.85372688 79.5431139 202.85372688 79.5431139 202.44575691 78.17889881 C202.24442146 77.50415516 202.04308601 76.82941151 201.83564949 76.13422108 C200.77104752 76.13367631 199.70644554 76.13313154 198.6095829 76.13257027 C172.7031835 76.11817363 146.79695209 76.07515187 120.8906498 76.00213051 C108.36253094 75.96748027 95.83452212 75.94212492 83.30635262 75.93866444 C72.38654856 75.93562461 61.46694048 75.91513141 50.54721212 75.87369651 C44.76547574 75.85236677 38.98401797 75.83976593 33.2022419 75.84806728 C27.75860901 75.85560734 22.31554064 75.83978574 16.87201118 75.80616093 C14.87581737 75.79792723 12.87956743 75.79817819 10.88337898 75.80762386 C8.15298003 75.81926307 5.42442594 75.80010172 2.69417 75.77345753 C1.51514823 75.78946742 1.51514823 75.78946742 0.31230783 75.80580074 C-5.57273855 75.69899491 -9.5934718 73.83356067 -14.16435051 70.13422108 C-18.29955208 64.79372837 -17.59747676 58.4095285 -17.56278801 51.94672108 C-17.56565819 50.77085438 -17.56852837 49.59498768 -17.57148552 48.38348866 C-17.57352314 45.90228257 -17.56801448 43.42106032 -17.55546379 40.93988514 C-17.53940685 37.14752668 -17.55532379 33.35623399 -17.57450676 29.56390858 C-17.57252428 27.14984373 -17.5686805 24.73577955 -17.56278801 22.32172108 C-17.5688607 21.19032703 -17.5749334 20.05893299 -17.58119011 18.89325428 C-17.53095028 13.25483709 -17.44533947 8.95608339 -14.16435051 4.13422108 C-9.79369565 0.17331511 -5.66174112 -0.01217051 0 0 Z " fill="#FFFFFF" transform="translate(17.164350509643555,-0.13422107696533203)"/>
<path d="M0 0 C3.63 0 7.26 0 11 0 C11.38333496 0.89307861 11.76666992 1.78615723 12.16162109 2.70629883 C13.58618849 6.02302612 15.0146712 9.33805498 16.44433594 12.65258789 C17.06226621 14.08669837 17.67913726 15.52126573 18.29492188 16.95629883 C19.18080251 19.02025781 20.07049369 21.08253756 20.9609375 23.14453125 C21.23497406 23.78526077 21.50901062 24.4259903 21.79135132 25.08613586 C23.02217267 27.92707016 24.27546379 30.41319568 26 33 C26.33 22.11 26.66 11.22 27 0 C29.64 0 32.28 0 35 0 C35.09894543 5.33848672 35.17150414 10.67643869 35.21972656 16.015625 C35.23983061 17.8314748 35.26711835 19.64725995 35.30175781 21.46289062 C35.35033039 24.07438105 35.37298027 26.68501498 35.390625 29.296875 C35.41127014 30.10743347 35.43191528 30.91799194 35.45318604 31.75311279 C35.45463207 35.39298414 35.33624033 37.54197463 33.15039062 40.51953125 C30.35164991 42.44636636 28.61461843 42.41021993 25.25 42.25 C24.26515625 42.21390625 23.2803125 42.1778125 22.265625 42.140625 C21.51796875 42.09421875 20.7703125 42.0478125 20 42 C18.89442408 39.64648632 17.79051018 37.2922159 16.6875 34.9375 C16.2244043 33.95233398 16.2244043 33.95233398 15.75195312 32.94726562 C15.44580078 32.29306641 15.13964844 31.63886719 14.82421875 30.96484375 C14.54666748 30.3730835 14.26911621 29.78132324 13.9831543 29.17163086 C12.60849875 26.13523625 11.31296145 23.06357672 10 20 C9.67 27.26 9.34 34.52 9 42 C6.03 42 3.06 42 0 42 C0 28.14 0 14.28 0 0 Z " fill="#FFFFFF" transform="translate(204,17)"/>
<path d="M0 0 C4.00125 -0.0825 8.0025 -0.165 12.125 -0.25 C13.37555176 -0.28641602 14.62610352 -0.32283203 15.91455078 -0.36035156 C22.22312048 -0.42336611 26.28684187 -0.39840956 31 4 C33.32250299 7.90602776 33.3997464 11.52284036 33 16 C31.34860695 19.5386994 30.28394771 20.81070153 27 23 C27.92039063 24.01126953 27.92039063 24.01126953 28.859375 25.04296875 C31.30667685 28.42363937 32.19690244 31.28816291 33.25 35.3125 C33.58515625 36.56675781 33.9203125 37.82101563 34.265625 39.11328125 C34.50796875 40.06589844 34.7503125 41.01851562 35 42 C31.7 42 28.4 42 25 42 C24.566875 40.824375 24.13375 39.64875 23.6875 38.4375 C23.40390625 37.71175781 23.1203125 36.98601563 22.828125 36.23828125 C22 34 22 34 21.484375 31.98046875 C20.93413304 29.81119099 20.93413304 29.81119099 19 27 C15.61629916 25.76807008 12.61875582 25.42297146 9 25 C9 30.61 9 36.22 9 42 C6.03 42 3.06 42 0 42 C0 28.14 0 14.28 0 0 Z M9 7 C9 10.63 9 14.26 9 18 C11.6296875 18.061875 11.6296875 18.061875 14.3125 18.125 C15.79169922 18.15980469 15.79169922 18.15980469 17.30078125 18.1953125 C20.22406527 18.20682639 20.22406527 18.20682639 23 16 C23.5 12.5 23.5 12.5 23 9 C19.57905758 6.71937172 18.31812778 6.78074993 14.3125 6.875 C12.559375 6.91625 10.80625 6.9575 9 7 Z " fill="#FFFFFF" transform="translate(104,17)"/>
<path d="M0 0 C0.639375 -0.02449219 1.27875 -0.04898437 1.9375 -0.07421875 C5.76173268 1.33813991 8.20025629 4.95270191 9.86587524 8.56575012 C10.61250296 10.64770941 11.26887286 12.73795321 11.89453125 14.859375 C12.13161301 15.62300354 12.36869476 16.38663208 12.61296082 17.17340088 C13.35958063 19.59087965 14.08591282 22.01393505 14.8125 24.4375 C15.31841255 26.07981233 15.82556246 27.72174403 16.33398438 29.36328125 C20 41.29497813 20 41.29497813 20 43.6875 C16.7 43.6875 13.4 43.6875 10 43.6875 C9.34 40.7175 8.68 37.7475 8 34.6875 C0.08 35.1825 0.08 35.1825 -8 35.6875 C-8.99 38.3275 -9.98 40.9675 -11 43.6875 C-13.97 43.6875 -16.94 43.6875 -20 43.6875 C-18.49145425 36.29804596 -16.47570631 29.10666734 -14.27856445 21.89306641 C-13.88298223 20.58426277 -13.49435342 19.27333822 -13.11254883 17.96044922 C-12.55284244 16.03674243 -11.970015 14.11981082 -11.38671875 12.203125 C-10.87951294 10.50591309 -10.87951294 10.50591309 -10.36206055 8.77441406 C-8.3653359 4.24912523 -5.33235846 -0.03225217 0 0 Z M-1 9.6875 C-1.83679277 12.31144306 -2.66956942 14.93654384 -3.5 17.5625 C-3.73847656 18.30886719 -3.97695313 19.05523437 -4.22265625 19.82421875 C-5.52770415 23.67992067 -5.52770415 23.67992067 -6 27.6875 C-2.04 27.6875 1.92 27.6875 6 27.6875 C4.35 21.7475 2.7 15.8075 1 9.6875 C0.34 9.6875 -0.32 9.6875 -1 9.6875 Z " fill="#FFFFFF" transform="translate(264,15.3125)"/>
<path d="M0 0 C0.639375 -0.02449219 1.27875 -0.04898437 1.9375 -0.07421875 C5.76173268 1.33813991 8.20025629 4.95270191 9.86587524 8.56575012 C10.61250296 10.64770941 11.26887286 12.73795321 11.89453125 14.859375 C12.13161301 15.62300354 12.36869476 16.38663208 12.61296082 17.17340088 C13.35958063 19.59087965 14.08591282 22.01393505 14.8125 24.4375 C15.31841255 26.07981233 15.82556246 27.72174403 16.33398438 29.36328125 C20 41.29497813 20 41.29497813 20 43.6875 C16.7 43.6875 13.4 43.6875 10 43.6875 C9.34 40.7175 8.68 37.7475 8 34.6875 C0.08 35.1825 0.08 35.1825 -8 35.6875 C-8.99 38.3275 -9.98 40.9675 -11 43.6875 C-13.97 43.6875 -16.94 43.6875 -20 43.6875 C-18.49145425 36.29804596 -16.47570631 29.10666734 -14.27856445 21.89306641 C-13.88298223 20.58426277 -13.49435342 19.27333822 -13.11254883 17.96044922 C-12.55284244 16.03674243 -11.970015 14.11981082 -11.38671875 12.203125 C-10.87951294 10.50591309 -10.87951294 10.50591309 -10.36206055 8.77441406 C-8.3653359 4.24912523 -5.33235846 -0.03225217 0 0 Z M-1 9.6875 C-1.83679277 12.31144306 -2.66956942 14.93654384 -3.5 17.5625 C-3.73847656 18.30886719 -3.97695312 19.05523437 -4.22265625 19.82421875 C-5.52770415 23.67992067 -5.52770415 23.67992067 -6 27.6875 C-2.04 27.6875 1.92 27.6875 6 27.6875 C4.35 21.7475 2.7 15.8075 1 9.6875 C0.34 9.6875 -0.32 9.6875 -1 9.6875 Z " fill="#FFFFFF" transform="translate(178,15.3125)"/>
<path d="M0 0 C0.639375 -0.02449219 1.27875 -0.04898437 1.9375 -0.07421875 C5.76173268 1.33813991 8.20025629 4.95270191 9.86587524 8.56575012 C10.61250296 10.64770941 11.26887286 12.73795321 11.89453125 14.859375 C12.13161301 15.62300354 12.36869476 16.38663208 12.61296082 17.17340088 C13.35958063 19.59087965 14.08591282 22.01393505 14.8125 24.4375 C15.31841255 26.07981233 15.82556246 27.72174403 16.33398438 29.36328125 C20 41.29497813 20 41.29497813 20 43.6875 C16.7 43.6875 13.4 43.6875 10 43.6875 C9.34 40.7175 8.68 37.7475 8 34.6875 C0.08 35.1825 0.08 35.1825 -8 35.6875 C-8.99 38.3275 -9.98 40.9675 -11 43.6875 C-13.97 43.6875 -16.94 43.6875 -20 43.6875 C-18.49145425 36.29804596 -16.47570631 29.10666734 -14.27856445 21.89306641 C-13.88298223 20.58426277 -13.49435342 19.27333822 -13.11254883 17.96044922 C-12.55284244 16.03674243 -11.970015 14.11981082 -11.38671875 12.203125 C-10.87951294 10.50591309 -10.87951294 10.50591309 -10.36206055 8.77441406 C-8.3653359 4.24912523 -5.33235846 -0.03225217 0 0 Z M-1 9.6875 C-1.83679277 12.31144306 -2.66956942 14.93654384 -3.5 17.5625 C-3.73847656 18.30886719 -3.97695312 19.05523437 -4.22265625 19.82421875 C-5.52770415 23.67992067 -5.52770415 23.67992067 -6 27.6875 C-2.04 27.6875 1.92 27.6875 6 27.6875 C4.35 21.7475 2.7 15.8075 1 9.6875 C0.34 9.6875 -0.32 9.6875 -1 9.6875 Z " fill="#FFFFFF" transform="translate(78,15.3125)"/>
<path d="M0 0 C2.33484706 1.21818107 3.12425298 1.78752775 4.125 4.24609375 C4.3125 6.25 4.3125 6.25 2.625 8.5625 C0.3125 10.25 0.3125 10.25 -1.625 10.1875 C-3.6875 9.25 -3.6875 9.25 -6 7.625 C-9.57313666 5.79688357 -11.84454621 6.42112761 -15.6875 7.25 C-16.43707157 10.72147842 -16.43707157 10.72147842 -16.6875 14.25 C-15.90246094 14.43175781 -15.11742187 14.61351563 -14.30859375 14.80078125 C0.52684225 18.3503641 0.52684225 18.3503641 3.96484375 22.0078125 C6.43720837 26.12125393 6.04735509 30.6210997 5.3125 35.25 C2.51607319 39.16499754 -0.18688431 40.78379376 -4.6875 42.25 C-8.02734375 42.55078125 -8.02734375 42.55078125 -11.625 42.5625 C-12.80964844 42.57925781 -13.99429687 42.59601562 -15.21484375 42.61328125 C-21.05488627 42.00234317 -24.82041196 39.56329051 -28.6875 35.25 C-27.53576645 32.78199953 -26.63966435 31.20216435 -24.6875 29.25 C-22.19091741 29.49160477 -21.02901025 29.87098285 -19.3359375 31.75 C-17.27821749 33.62242768 -15.99269626 33.78961791 -13.25 34.0625 C-12.10724609 34.19591797 -12.10724609 34.19591797 -10.94140625 34.33203125 C-8.24560504 34.23391717 -6.85719293 33.86654045 -4.6875 32.25 C-3.87578772 29.69480079 -3.87578772 29.69480079 -3.6875 27.25 C-4.4609375 27.07984375 -5.234375 26.9096875 -6.03125 26.734375 C-20.89473031 23.27604047 -20.89473031 23.27604047 -25.37109375 18.42578125 C-27.70550101 14.5674286 -27.42202178 10.60221315 -26.6875 6.25 C-25.01931761 2.88617543 -22.77749824 0.78395184 -19.375 -0.8828125 C-13.10924189 -2.90461236 -6.00831507 -2.75471485 0 0 Z " fill="#FFFFFF" transform="translate(372.6875,17.75)"/>
<path d="M0 0 C2.44333952 1.75419247 4.50298314 3.44346067 6.4375 5.75 C6.4375 6.41 6.4375 7.07 6.4375 7.75 C4.1275 9.07 1.8175 10.39 -0.5625 11.75 C-1.0575 11.110625 -1.5525 10.47125 -2.0625 9.8125 C-5.4207877 7.04191265 -8.28862687 6.78503175 -12.5625 6.75 C-14.92943717 7.08500079 -14.92943717 7.08500079 -16.5625 7.75 C-17.35341257 10.54607623 -17.69068608 13.03475241 -17.6953125 15.9375 C-17.69660156 16.71867187 -17.69789062 17.49984375 -17.69921875 18.3046875 C-17.69535156 19.11164062 -17.69148438 19.91859375 -17.6875 20.75 C-17.69136719 21.55695312 -17.69523437 22.36390625 -17.69921875 23.1953125 C-17.69728516 24.36707031 -17.69728516 24.36707031 -17.6953125 25.5625 C-17.69418457 26.27019531 -17.69305664 26.97789063 -17.69189453 27.70703125 C-17.55761502 29.82712733 -17.13966498 31.70957563 -16.5625 33.75 C-9.91138791 34.93051797 -9.91138791 34.93051797 -3.5 33.4375 C-1.47297847 31.88824844 -1.47297847 31.88824844 -0.5625 29.75 C4.11442308 31.22692308 4.11442308 31.22692308 5.75 33.875 C5.976875 34.49375 6.20375 35.1125 6.4375 35.75 C2.33944204 40.19932007 -0.5962312 42.4641393 -6.68359375 43.05078125 C-18.06941244 43.09101382 -18.06941244 43.09101382 -22.5625 39.75 C-28.14030183 33.56919257 -27.80426232 29.05466344 -27.875 21 C-27.90400391 19.91460937 -27.93300781 18.82921875 -27.96289062 17.7109375 C-28.0130775 11.39511227 -27.85223087 7.52431158 -23.5625 2.75 C-17.24347959 -2.80307854 -7.66176088 -2.68833715 0 0 Z " fill="#FFFFFF" transform="translate(49.5625,17.25)"/>
<path d="M0 0 C3.50531749 -0.62347544 6.52320103 -0.86141586 10 0 C12.75964915 2.98310252 14.3469613 6.31417047 16 10 C16.66 11.32 17.32 12.64 18 14 C20.64 9.38 23.28 4.76 26 0 C29.63 0 33.26 0 37 0 C32.667001 9.07221665 32.667001 9.07221665 29.921875 12.890625 C23.13392476 22.41328901 22.80671667 30.56004294 23 42 C20.03 42 17.06 42 14 42 C14.11794922 40.43378906 14.11794922 40.43378906 14.23828125 38.8359375 C14.6778062 24.74518926 8.91412519 15.41129619 1.17749023 3.9609375 C0 2 0 2 0 0 Z " fill="#FFFFFF" transform="translate(307,17)"/>
<path d="M0 0 C3.3 0 6.6 0 10 0 C10.33 10.89 10.66 21.78 11 33 C14.171738 34.585869 17.63513822 34.37866445 21.125 34.5625 C22.25615234 34.62727539 22.25615234 34.62727539 23.41015625 34.69335938 C25.27321888 34.7994832 27.13658524 34.90025001 29 35 C29 37.31 29 39.62 29 42 C25.62529496 42.11689626 22.2511157 42.18747934 18.875 42.25 C17.92367188 42.28351562 16.97234375 42.31703125 15.9921875 42.3515625 C10.18608437 42.43220282 6.43949766 42.17000739 2 38 C-0.20030075 33.8296954 -0.26368375 29.90309235 -0.1953125 25.29296875 C-0.1924826 24.56757401 -0.18965271 23.84217926 -0.18673706 23.09480286 C-0.17559799 20.79219632 -0.15050566 18.48998773 -0.125 16.1875 C-0.11496206 14.62044835 -0.10583763 13.05339057 -0.09765625 11.48632812 C-0.0756793 7.65740022 -0.04119339 3.82876744 0 0 Z " fill="#FFFFFF" transform="translate(287,17)"/>
<path d="M0 0 C2.97 0 5.94 0 9 0 C9 13.86 9 27.72 9 42 C6.03 42 3.06 42 0 42 C0 28.14 0 14.28 0 0 Z " fill="#FFFFFF" transform="translate(385,17)"/>
</svg>
