<?xml version="1.0" standalone="no"?>
<!DOCTYPE svg PUBLIC "-//W3C//DTD SVG 20010904//EN"
 "http://www.w3.org/TR/2001/REC-SVG-20010904/DTD/svg10.dtd">
<svg version="1.0" xmlns="http://www.w3.org/2000/svg"
 width="512.000000pt" height="512.000000pt" viewBox="0 0 512.000000 512.000000"
 preserveAspectRatio="xMidYMid meet">

<g transform="translate(0.000000,512.000000) scale(0.100000,-0.100000)"
fill="#000000" stroke="none">
<path d="M2330 5109 c-305 -29 -646 -126 -910 -259 -273 -138 -559 -356 -755
-576 -384 -432 -602 -931 -655 -1499 -41 -446 55 -949 260 -1355 138 -273 356
-559 576 -755 432 -384 931 -602 1499 -655 446 -41 949 55 1355 260 273 138
559 356 755 576 384 432 602 931 655 1499 41 446 -55 949 -260 1355 -138 273
-356 559 -576 755 -432 384 -931 602 -1499 655 -125 11 -320 11 -445 -1z m470
-979 c145 -22 337 -83 462 -146 290 -147 553 -407 702 -694 245 -471 245 -994
0 -1460 -74 -140 -149 -243 -264 -363 -252 -264 -551 -422 -905 -478 -103 -17
-378 -16 -475 0 -353 60 -645 213 -891 467 -267 277 -415 598 -451 976 -26
286 33 575 173 848 78 150 166 273 281 389 278 281 586 428 998 475 58 7 290
-2 370 -14z"/>
<path d="M2295 3815 c-251 -54 -462 -170 -647 -357 -60 -59 -108 -114 -108
-122 0 -12 545 -336 565 -336 4 0 27 17 51 39 46 41 154 100 217 121 l37 12 0
329 0 329 -27 -1 c-16 0 -55 -7 -88 -14z"/>
<path d="M2710 3502 l0 -330 38 -12 c62 -21 170 -80 216 -121 24 -22 47 -39
51 -39 20 0 565 324 565 336 0 27 -213 228 -304 288 -154 101 -360 183 -509
201 l-57 7 0 -330z"/>
<path d="M1347 2992 c-40 -116 -55 -185 -68 -314 -20 -184 11 -406 79 -580
l18 -48 280 161 c153 89 284 165 290 170 8 6 7 27 -2 71 -17 80 -17 136 0 216
l13 64 -36 22 c-38 24 -491 285 -526 304 -19 10 -23 5 -48 -66z"/>
<path d="M3464 2909 c-153 -89 -284 -165 -290 -170 -8 -6 -7 -27 2 -71 8 -35
14 -83 14 -108 0 -25 -6 -73 -14 -108 -9 -44 -10 -65 -2 -71 6 -5 137 -81 290
-170 l280 -161 18 48 c69 175 99 395 79 581 -12 117 -42 250 -79 343 l-18 48
-280 -161z"/>
<path d="M2475 2878 c-108 -26 -212 -138 -236 -256 -36 -172 82 -347 259 -383
126 -26 260 30 334 141 165 249 -64 569 -357 498z"/>
<path d="M1820 1960 c-151 -87 -276 -166 -278 -174 -5 -25 204 -226 302 -290
154 -101 360 -183 509 -201 l57 -7 0 330 0 330 -37 12 c-63 21 -171 80 -217
121 -24 22 -48 39 -53 39 -4 -1 -132 -72 -283 -160z"/>
<path d="M2963 2081 c-45 -40 -152 -100 -215 -121 l-38 -12 0 -330 0 -330 57
7 c149 18 355 100 509 201 91 60 304 261 304 288 0 13 -546 337 -566 336 -5
-1 -28 -18 -51 -39z"/>
</g>
</svg>
