<?xml version="1.0" standalone="no"?>
<!DOCTYPE svg PUBLIC "-//W3C//DTD SVG 20010904//EN"
 "http://www.w3.org/TR/2001/REC-SVG-20010904/DTD/svg10.dtd">
<svg version="1.0" xmlns="http://www.w3.org/2000/svg"
 width="512.000000pt" height="512.000000pt" viewBox="0 0 512.000000 512.000000"
 preserveAspectRatio="xMidYMid meet">

<g transform="translate(0.000000,512.000000) scale(0.100000,-0.100000)"
fill="#000000" stroke="none">
<path d="M2369 4845 c-14 -8 -35 -27 -45 -42 -18 -26 -19 -55 -22 -425 -2
-250 1 -412 7 -436 31 -114 170 -135 232 -36 18 30 19 54 19 443 0 447 0 446
-56 490 -31 25 -96 27 -135 6z"/>
<path d="M569 4327 c-43 -29 -63 -84 -49 -136 14 -53 551 -589 601 -600 99
-22 184 71 149 164 -12 33 -529 558 -572 581 -39 21 -90 17 -129 -9z"/>
<path d="M4164 4335 c-17 -9 -150 -136 -296 -283 -282 -283 -293 -298 -277
-371 10 -44 46 -80 90 -90 73 -16 88 -5 371 277 147 146 275 281 284 300 52
109 -64 222 -172 167z"/>
<path d="M2239 3564 c-451 -81 -807 -409 -919 -846 -137 -531 123 -1084 622
-1323 329 -158 729 -146 1044 30 591 331 772 1079 399 1650 -50 77 -233 260
-310 310 -136 89 -295 152 -450 179 -108 19 -282 19 -386 0z m400 -265 c262
-60 484 -242 601 -492 124 -264 108 -587 -42 -833 -136 -226 -372 -385 -629
-425 -110 -17 -276 -6 -382 25 -151 45 -256 106 -371 215 -170 163 -262 364
-273 596 -11 229 51 424 192 602 216 273 557 391 904 312z"/>
<path d="M66 2541 c-16 -11 -38 -33 -49 -51 -41 -65 2 -158 85 -181 24 -6 186
-9 436 -7 371 3 399 4 425 22 58 39 76 129 36 180 -44 56 -43 56 -491 56 -390
0 -415 -1 -442 -19z"/>
<path d="M3906 2541 c-16 -11 -38 -33 -49 -51 -41 -65 2 -158 85 -181 24 -6
186 -9 436 -7 371 3 399 4 425 22 58 39 76 129 36 180 -44 56 -43 56 -491 56
-390 0 -415 -1 -442 -19z"/>
<path d="M1110 1273 c-16 -3 -127 -106 -306 -286 -296 -297 -302 -305 -287
-378 7 -39 53 -85 92 -92 74 -15 81 -9 378 287 257 257 282 284 288 322 16 99
-61 167 -165 147z"/>
<path d="M3673 1273 c-30 -6 -72 -50 -81 -87 -19 -71 -10 -83 285 -378 303
-303 313 -311 389 -286 70 24 105 110 70 176 -22 41 -547 560 -579 572 -29 10
-44 11 -84 3z"/>
<path d="M2369 1005 c-14 -8 -35 -27 -45 -42 -18 -26 -19 -55 -22 -425 -2
-250 1 -412 7 -436 31 -114 170 -135 232 -36 18 30 19 54 19 443 0 447 0 446
-56 490 -31 25 -96 27 -135 6z"/>
</g>
</svg>
